<svg xmlns="http://www.w3.org/2000/svg" x="0px" y="0px" width="50" height="50" viewBox="0 0 172 172" style=" fill:#000000;"><g transform="translate(4.988,4.988) scale(0.942,0.942)"><g fill="none" fill-rule="nonzero" stroke="none" stroke-width="none" stroke-linecap="butt" stroke-linejoin="none" stroke-miterlimit="10" stroke-dasharray="" stroke-dashoffset="0" font-family="none" font-weight="none" font-size="none" text-anchor="none" style="mix-blend-mode: normal"><g fill="#000000" stroke="#cccccc" stroke-width="10" stroke-linejoin="round"><path d="M87.13547,7.07484c0,0 17.5401,6.07015 31.88719,16.83047c7.17355,5.38016 13.70294,11.96707 16.64906,20.06891c2.94612,8.10184 1.73486,17.67694 -5.70422,26.97578c-6.60056,8.25091 -10.11541,15.45035 -11.26735,22.05765c-1.15193,6.6073 -0.04744,12.75462 3.14438,19.37016c6.38363,13.23109 21.54335,27.87048 42.16015,46.76922c0.95825,0.81687 1.39368,2.09199 1.13521,3.32435c-0.25847,1.23236 -1.16955,2.22507 -2.37526,2.58808c-1.20572,0.36301 -2.51342,0.03832 -3.40932,-0.84649c-20.66319,-18.94126 -36.37796,-33.64394 -43.71219,-48.84531c-3.66712,-7.60069 -5.13445,-15.44197 -3.72219,-23.5425c1.41226,-8.10052 5.5964,-16.33098 12.67156,-25.17515c6.32092,-7.90115 6.82966,-14.23605 4.61578,-20.32422c-2.21388,-6.08816 -7.72449,-11.97125 -14.31094,-16.91109c-13.17291,-9.87968 -30.03281,-15.84953 -30.03281,-15.84953c-1.56872,-0.52495 -2.54175,-2.09204 -2.31655,-3.73086c0.22519,-1.63882 1.58485,-2.88537 3.23702,-2.96773c0.45955,-0.02157 0.91877,0.04926 1.35047,0.20828zM28.46734,13.89438c0,0 18.31781,5.14904 32.31047,14.17656c6.99633,4.51376 13.24082,10.00362 15.07015,17.32094c0.91467,3.65867 0.49716,7.71895 -1.48484,11.56969c-1.982,3.85074 -5.39754,7.52673 -10.42078,11.18c-19.00522,13.82198 -35.75448,25.0296 -42.39531,37.92062c-3.32041,6.44551 -4.37977,13.24343 -2.24406,21.83594c2.13571,8.5925 7.6538,18.96846 17.78453,31.63187c0.76853,0.96012 0.96634,2.25735 0.51891,3.40289c-0.44743,1.14554 -1.47211,1.96528 -2.68793,2.15034c-1.21582,0.18506 -2.43799,-0.29269 -3.20598,-1.25323c-10.50927,-13.13659 -16.60118,-24.26063 -19.08797,-34.26563c-2.48679,-10.00499 -1.18115,-18.90207 2.80844,-26.64656c7.97917,-15.48898 25.6299,-26.64135 44.46469,-40.33938c4.43676,-3.22673 7.04122,-6.21574 8.35141,-8.76125c1.31019,-2.54551 1.45705,-4.61273 0.92047,-6.75906c-1.07317,-4.29268 -5.79367,-9.12282 -12.12735,-13.20906c-12.66734,-8.17248 -30.46953,-13.34344 -30.46953,-13.34344c-1.65654,-0.45227 -2.72593,-2.05678 -2.50586,-3.75978c0.22007,-1.70301 1.66221,-2.98297 3.3793,-2.99928c0.34591,-0.00235 0.6902,0.04748 1.02125,0.14781zM97.17328,27.38563c1.77712,1.99927 2.58672,4.52993 2.58672,7.01437c0,2.48444 -0.80959,5.01511 -2.58672,7.01437c-1.77712,1.99927 -4.57995,3.30563 -7.73328,3.30563c-3.15333,0 -5.95616,-1.30636 -7.73328,-3.30563c-1.77712,-1.99926 -2.58672,-4.52993 -2.58672,-7.01437c0,-2.48444 0.80959,-5.01511 2.58672,-7.01437c1.77712,-1.99927 4.57995,-3.30563 7.73328,-3.30563c3.15333,0 5.95616,1.30636 7.73328,3.30563zM86.85328,31.95438c-0.51621,0.58073 -0.85328,1.49007 -0.85328,2.44562c0,0.95556 0.33707,1.86489 0.85328,2.44563c0.51621,0.58073 1.15339,0.99437 2.58672,0.99437c1.43333,0 2.07051,-0.41364 2.58672,-0.99437c0.5162,-0.58074 0.85328,-1.49007 0.85328,-2.44563c0,-0.95556 -0.33707,-1.86489 -0.85328,-2.44562c-0.51621,-0.58073 -1.15339,-0.99437 -2.58672,-0.99437c-1.43333,0 -2.07051,0.41364 -2.58672,0.99437zM114.37328,54.90563c1.77712,1.99926 2.58672,4.52993 2.58672,7.01437c0,2.48444 -0.80959,5.01511 -2.58672,7.01437c-1.77712,1.99927 -4.57995,3.30563 -7.73328,3.30563c-3.15333,0 -5.95616,-1.30636 -7.73328,-3.30563c-1.77712,-1.99926 -2.58672,-4.52993 -2.58672,-7.01437c0,-2.48444 0.80959,-5.01511 2.58672,-7.01437c1.77712,-1.99927 4.57995,-3.30563 7.73328,-3.30563c3.15333,0 5.95616,1.30636 7.73328,3.30563zM104.05328,59.47437c-0.51621,0.58074 -0.85328,1.49007 -0.85328,2.44563c0,0.95556 0.33707,1.86489 0.85328,2.44563c0.51621,0.58073 1.15339,0.99437 2.58672,0.99437c1.43333,0 2.07051,-0.41364 2.58672,-0.99437c0.5162,-0.58074 0.85328,-1.49007 0.85328,-2.44563c0,-0.95556 -0.33707,-1.86489 -0.85328,-2.44563c-0.51621,-0.58073 -1.15339,-0.99437 -2.58672,-0.99437c-1.43333,0 -2.07051,0.41364 -2.58672,0.99437zM89.43328,76.62063c2.35046,2.64426 3.44672,6.03493 3.44672,9.37937c0,3.34444 -1.09626,6.73511 -3.44672,9.37937c-2.35046,2.64427 -6.01328,4.38063 -10.31328,4.38063c-4.3,0 -7.96282,-1.73636 -10.31328,-4.38063c-2.35046,-2.64426 -3.44672,-6.03493 -3.44672,-9.37937c0,-3.34444 1.09626,-6.73511 3.44672,-9.37937c2.35046,-2.64427 6.01328,-4.38063 10.31328,-4.38063c4.3,0 7.96282,1.73636 10.31328,4.38063zM73.95328,81.18937c-1.08954,1.22574 -1.71328,2.99507 -1.71328,4.81063c0,1.81556 0.62374,3.58489 1.71328,4.81063c1.08954,1.22573 2.58672,2.06937 5.16672,2.06937c2.58,0 4.07718,-0.84364 5.16672,-2.06937c1.08954,-1.22574 1.71328,-2.99507 1.71328,-4.81063c0,-1.81556 -0.62374,-3.58489 -1.71328,-4.81063c-1.08954,-1.22573 -2.58672,-2.06937 -5.16672,-2.06937c-2.58,0 -4.07718,0.84364 -5.16672,2.06937zM86.85328,116.82563c1.77712,1.99926 2.58672,4.52993 2.58672,7.01437c0,2.48444 -0.80959,5.01511 -2.58672,7.01437c-1.77712,1.99927 -4.57995,3.30563 -7.73328,3.30563c-3.15333,0 -5.95616,-1.30636 -7.73328,-3.30563c-1.77712,-1.99926 -2.58672,-4.52993 -2.58672,-7.01437c0,-2.48444 0.80959,-5.01511 2.58672,-7.01437c1.77712,-1.99927 4.57995,-3.30563 7.73328,-3.30563c3.15333,0 5.95616,1.30636 7.73328,3.30563zM76.53328,121.39437c-0.51621,0.58074 -0.85328,1.49007 -0.85328,2.44563c0,0.95556 0.33707,1.86489 0.85328,2.44563c0.51621,0.58073 1.15339,0.99437 2.58672,0.99437c1.43333,0 2.07051,-0.41364 2.58672,-0.99437c0.5162,-0.58074 0.85328,-1.49007 0.85328,-2.44563c0,-0.95556 -0.33707,-1.86489 -0.85328,-2.44563c-0.51621,-0.58073 -1.15339,-0.99437 -2.58672,-0.99437c-1.43333,0 -2.07051,0.41364 -2.58672,0.99437zM117.38328,134.56313c2.06379,2.32176 3.01672,5.28243 3.01672,8.19687c0,2.91444 -0.95293,5.87511 -3.01672,8.19687c-2.06379,2.32177 -5.29662,3.84313 -9.02328,3.84313c-3.72667,0 -6.95949,-1.52136 -9.02328,-3.84313c-2.06379,-2.32176 -3.01672,-5.28243 -3.01672,-8.19687c0,-2.91444 0.95293,-5.87511 3.01672,-8.19687c2.06379,-2.32177 5.29662,-3.84313 9.02328,-3.84313c3.72667,0 6.95949,1.52136 9.02328,3.84313zM65.35328,138.54063c2.35046,2.64426 3.44672,6.03493 3.44672,9.37937c0,3.34444 -1.09626,6.73511 -3.44672,9.37937c-2.35046,2.64427 -6.01328,4.38063 -10.31328,4.38063c-4.3,0 -7.96282,-1.73636 -10.31328,-4.38063c-2.35046,-2.64426 -3.44672,-6.03493 -3.44672,-9.37937c0,-3.34444 1.09626,-6.73511 3.44672,-9.37937c2.35046,-2.64427 6.01328,-4.38063 10.31328,-4.38063c4.3,0 7.96282,1.73636 10.31328,4.38063zM104.48328,139.13187c-0.80288,0.90324 -1.28328,2.24257 -1.28328,3.62813c0,1.38556 0.48041,2.72489 1.28328,3.62813c0.80288,0.90323 1.87005,1.53187 3.87672,1.53187c2.00667,0 3.07384,-0.62864 3.87672,-1.53187c0.80288,-0.90324 1.28328,-2.24257 1.28328,-3.62813c0,-1.38556 -0.48041,-2.72489 -1.28328,-3.62813c-0.80288,-0.90323 -1.87005,-1.53187 -3.87672,-1.53187c-2.00667,0 -3.07384,0.62864 -3.87672,1.53187zM49.87328,143.10937c-1.08954,1.22574 -1.71328,2.99507 -1.71328,4.81063c0,1.81556 0.62374,3.58489 1.71328,4.81063c1.08954,1.22573 2.58672,2.06937 5.16672,2.06937c2.58,0 4.07718,-0.84364 5.16672,-2.06937c1.08954,-1.22574 1.71328,-2.99507 1.71328,-4.81063c0,-1.81556 -0.62374,-3.58489 -1.71328,-4.81063c-1.08954,-1.22573 -2.58672,-2.06937 -5.16672,-2.06937c-2.58,0 -4.07718,0.84364 -5.16672,2.06937z"></path></g><path d="M0,172v-172h172v172z" fill="none" stroke="none" stroke-width="1" stroke-linejoin="miter"></path><g fill="#000000" stroke="none" stroke-width="1" stroke-linejoin="miter"><path d="M85.785,6.86656c-1.65217,0.08236 -3.01183,1.32891 -3.23702,2.96773c-0.22519,1.63882 0.74783,3.20591 2.31655,3.73086c0,0 16.8599,5.96985 30.03281,15.84953c6.58645,4.93984 12.09706,10.82293 14.31094,16.91109c2.21388,6.08816 1.70514,12.42306 -4.61578,20.32422c-7.07516,8.84417 -11.2593,17.07463 -12.67156,25.17515c-1.41226,8.10053 0.05507,15.94181 3.72219,23.5425c7.33423,15.20137 23.04899,29.90405 43.71219,48.84531c0.8959,0.88481 2.2036,1.2095 3.40932,0.84649c1.20572,-0.36301 2.11679,-1.35571 2.37526,-2.58808c0.25847,-1.23236 -0.17696,-2.50748 -1.13521,-3.32435c-20.61681,-18.89874 -35.77653,-33.53813 -42.16015,-46.76922c-3.19181,-6.61554 -4.29631,-12.76285 -3.14438,-19.37016c1.15194,-6.6073 4.66679,-13.80675 11.26735,-22.05765c7.43908,-9.29885 8.65034,-18.87395 5.70422,-26.97578c-2.94612,-8.10184 -9.47551,-14.68875 -16.64906,-20.06891c-14.34709,-10.76032 -31.88719,-16.83047 -31.88719,-16.83047c-0.4317,-0.15902 -0.89091,-0.22985 -1.35047,-0.20828zM27.44609,13.74656c-1.71709,0.01631 -3.15923,1.29627 -3.3793,2.99928c-0.22007,1.70301 0.84932,3.30752 2.50586,3.75978c0,0 17.80219,5.17096 30.46953,13.34344c6.33367,4.08624 11.05418,8.91638 12.12735,13.20906c0.53658,2.14633 0.38972,4.21355 -0.92047,6.75906c-1.31019,2.54551 -3.91465,5.53452 -8.35141,8.76125c-18.83478,13.69802 -36.48552,24.8504 -44.46469,40.33938c-3.98959,7.74449 -5.29523,16.64157 -2.80844,26.64656c2.48679,10.005 8.5787,21.12904 19.08797,34.26563c0.768,0.96054 1.99017,1.43829 3.20598,1.25323c1.21582,-0.18506 2.2405,-1.0048 2.68793,-2.15034c0.44743,-1.14554 0.24961,-2.44277 -0.51891,-3.40289c-10.13073,-12.66341 -15.64882,-23.03937 -17.78453,-31.63187c-2.13571,-8.59251 -1.07635,-15.39043 2.24406,-21.83594c6.64083,-12.89102 23.3901,-24.09865 42.39531,-37.92062c5.02324,-3.65327 8.43878,-7.32926 10.42078,-11.18c1.982,-3.85074 2.39951,-7.91102 1.48484,-11.56969c-1.82933,-7.31732 -8.07383,-12.80718 -15.07015,-17.32094c-13.99266,-9.02752 -32.31047,-14.17656 -32.31047,-14.17656c-0.33105,-0.10033 -0.67534,-0.15016 -1.02125,-0.14781zM89.44,24.08c-3.15333,0 -5.95616,1.30636 -7.73328,3.30563c-1.77712,1.99927 -2.58672,4.52993 -2.58672,7.01437c0,2.48444 0.80959,5.01511 2.58672,7.01437c1.77712,1.99927 4.57995,3.30563 7.73328,3.30563c3.15333,0 5.95616,-1.30636 7.73328,-3.30563c1.77712,-1.99926 2.58672,-4.52993 2.58672,-7.01437c0,-2.48444 -0.80959,-5.01511 -2.58672,-7.01437c-1.77712,-1.99927 -4.57995,-3.30563 -7.73328,-3.30563zM89.44,30.96c1.43333,0 2.07051,0.41364 2.58672,0.99437c0.51621,0.58073 0.85328,1.49007 0.85328,2.44562c0,0.95556 -0.33709,1.86489 -0.85328,2.44563c-0.51621,0.58073 -1.15339,0.99437 -2.58672,0.99437c-1.43333,0 -2.07051,-0.41364 -2.58672,-0.99437c-0.51621,-0.58074 -0.85328,-1.49007 -0.85328,-2.44563c0,-0.95556 0.33707,-1.86489 0.85328,-2.44562c0.51621,-0.58073 1.15339,-0.99437 2.58672,-0.99437zM106.64,51.6c-3.15333,0 -5.95616,1.30636 -7.73328,3.30563c-1.77712,1.99926 -2.58672,4.52993 -2.58672,7.01437c0,2.48444 0.80959,5.01511 2.58672,7.01437c1.77712,1.99927 4.57995,3.30563 7.73328,3.30563c3.15333,0 5.95616,-1.30636 7.73328,-3.30563c1.77712,-1.99926 2.58672,-4.52993 2.58672,-7.01437c0,-2.48444 -0.80959,-5.01511 -2.58672,-7.01437c-1.77712,-1.99927 -4.57995,-3.30563 -7.73328,-3.30563zM106.64,58.48c1.43333,0 2.07051,0.41364 2.58672,0.99437c0.51621,0.58074 0.85328,1.49007 0.85328,2.44563c0,0.95556 -0.33709,1.86489 -0.85328,2.44563c-0.51621,0.58073 -1.15339,0.99437 -2.58672,0.99437c-1.43333,0 -2.07051,-0.41364 -2.58672,-0.99437c-0.51621,-0.58074 -0.85328,-1.49007 -0.85328,-2.44563c0,-0.95556 0.33707,-1.86489 0.85328,-2.44563c0.51621,-0.58073 1.15339,-0.99437 2.58672,-0.99437zM79.12,72.24c-4.3,0 -7.96282,1.73636 -10.31328,4.38063c-2.35046,2.64426 -3.44672,6.03493 -3.44672,9.37937c0,3.34444 1.09626,6.73511 3.44672,9.37937c2.35046,2.64427 6.01328,4.38063 10.31328,4.38063c4.3,0 7.96282,-1.73636 10.31328,-4.38063c2.35046,-2.64426 3.44672,-6.03493 3.44672,-9.37937c0,-3.34444 -1.09626,-6.73511 -3.44672,-9.37937c-2.35046,-2.64427 -6.01328,-4.38063 -10.31328,-4.38063zM79.12,79.12c2.58,0 4.07718,0.84364 5.16672,2.06937c1.08954,1.22574 1.71328,2.99507 1.71328,4.81063c0,1.81556 -0.62374,3.58489 -1.71328,4.81063c-1.08954,1.22573 -2.58672,2.06937 -5.16672,2.06937c-2.58,0 -4.07718,-0.84364 -5.16672,-2.06937c-1.08954,-1.22574 -1.71328,-2.99507 -1.71328,-4.81063c0,-1.81556 0.62374,-3.58489 1.71328,-4.81063c1.08954,-1.22573 2.58672,-2.06937 5.16672,-2.06937zM79.12,113.52c-3.15333,0 -5.95616,1.30636 -7.73328,3.30563c-1.77712,1.99926 -2.58672,4.52993 -2.58672,7.01437c0,2.48444 0.80959,5.01511 2.58672,7.01437c1.77712,1.99927 4.57995,3.30563 7.73328,3.30563c3.15333,0 5.95616,-1.30636 7.73328,-3.30563c1.77712,-1.99926 2.58672,-4.52993 2.58672,-7.01437c0,-2.48444 -0.80959,-5.01511 -2.58672,-7.01437c-1.77712,-1.99927 -4.57995,-3.30563 -7.73328,-3.30563zM79.12,120.4c1.43333,0 2.07051,0.41364 2.58672,0.99437c0.51621,0.58074 0.85328,1.49007 0.85328,2.44563c0,0.95556 -0.33709,1.86489 -0.85328,2.44563c-0.51621,0.58073 -1.15339,0.99437 -2.58672,0.99437c-1.43333,0 -2.07051,-0.41364 -2.58672,-0.99437c-0.51621,-0.58074 -0.85328,-1.49007 -0.85328,-2.44563c0,-0.95556 0.33707,-1.86489 0.85328,-2.44563c0.51621,-0.58073 1.15339,-0.99437 2.58672,-0.99437zM108.36,130.72c-3.72667,0 -6.95949,1.52136 -9.02328,3.84313c-2.06379,2.32176 -3.01672,5.28243 -3.01672,8.19687c0,2.91444 0.95293,5.87511 3.01672,8.19687c2.06379,2.32177 5.29662,3.84313 9.02328,3.84313c3.72667,0 6.95949,-1.52136 9.02328,-3.84313c2.06379,-2.32176 3.01672,-5.28243 3.01672,-8.19687c0,-2.91444 -0.95293,-5.87511 -3.01672,-8.19687c-2.06379,-2.32177 -5.29662,-3.84313 -9.02328,-3.84313zM55.04,134.16c-4.3,0 -7.96282,1.73636 -10.31328,4.38063c-2.35046,2.64426 -3.44672,6.03493 -3.44672,9.37937c0,3.34444 1.09626,6.73511 3.44672,9.37937c2.35046,2.64427 6.01328,4.38063 10.31328,4.38063c4.3,0 7.96282,-1.73636 10.31328,-4.38063c2.35046,-2.64426 3.44672,-6.03493 3.44672,-9.37937c0,-3.34444 -1.09626,-6.73511 -3.44672,-9.37937c-2.35046,-2.64427 -6.01328,-4.38063 -10.31328,-4.38063zM108.36,137.6c2.00667,0 3.07384,0.62864 3.87672,1.53187c0.80288,0.90324 1.28328,2.24257 1.28328,3.62813c0,1.38556 -0.48041,2.72489 -1.28328,3.62813c-0.80288,0.90323 -1.87005,1.53187 -3.87672,1.53187c-2.00667,0 -3.07384,-0.62864 -3.87672,-1.53187c-0.80288,-0.90324 -1.28328,-2.24257 -1.28328,-3.62813c0,-1.38556 0.48041,-2.72489 1.28328,-3.62813c0.80288,-0.90323 1.87005,-1.53187 3.87672,-1.53187zM55.04,141.04c2.58,0 4.07718,0.84364 5.16672,2.06937c1.08954,1.22574 1.71328,2.99507 1.71328,4.81063c0,1.81556 -0.62374,3.58489 -1.71328,4.81063c-1.08954,1.22573 -2.58672,2.06937 -5.16672,2.06937c-2.58,0 -4.07718,-0.84364 -5.16672,-2.06937c-1.08954,-1.22574 -1.71328,-2.99507 -1.71328,-4.81063c0,-1.81556 0.62374,-3.58489 1.71328,-4.81063c1.08954,-1.22573 2.58672,-2.06937 5.16672,-2.06937z"></path></g><path d="" fill="none" stroke="none" stroke-width="1" stroke-linejoin="miter"></path></g></g></svg>